<svg width="32" height="32" viewBox="0 0 32 32" fill="none" xmlns="http://www.w3.org/2000/svg">
<path d="M0.710029 0.0504159C1.09004 0.230423 1.47006 0.420431 1.84008 0.600439C3.60015 1.45047 5.35022 2.31051 7.11029 3.16054C9.55039 4.34059 11.9805 5.53064 14.4206 6.71069C16.7007 7.82073 18.9808 8.93078 21.2609 10.0308C23.0009 10.8809 24.741 11.7709 26.5411 12.4909C25.261 12.2309 23.911 12.6209 22.7309 13.121C21.7109 13.561 20.7309 14.101 19.7208 14.571C18.6208 15.081 17.3507 15.081 16.2407 14.591L6.22025 10.1408C2.4401 8.47076 0 4.68061 0 0.500434C0 0.130419 0.380016 -0.109591 0.710029 0.0504159Z" fill="url(#paint0_linear_79_177)"/>
<path d="M31.3013 17.1711L4.30018 30.3616L1.11005 31.9217C0.600025 32.1717 0 31.7917 0 31.2217V30.1316C0 27.0815 1.67007 24.3014 4.30018 22.8813C4.48018 22.7813 4.66019 22.7013 4.8402 22.6113L19.4008 16.001L24.001 13.9409C24.341 13.7909 24.691 13.6709 25.051 13.5809C25.7511 13.4009 26.4711 13.3409 27.1911 13.4009C27.9811 13.4709 28.7512 13.6809 29.4812 14.0309L31.3013 14.911C32.2413 15.371 32.2413 16.7211 31.3013 17.1711Z" fill="url(#paint1_linear_79_177)"/>
<defs>
<linearGradient id="paint0_linear_79_177" x1="13.2705" y1="14.961" x2="13.2705" y2="0.000413759" gradientUnits="userSpaceOnUse">
<stop stop-color="#3547FF"/>
<stop offset="1" stop-color="#8903FF"/>
</linearGradient>
<linearGradient id="paint1_linear_79_177" x1="-0.940038" y1="30.0016" x2="30.0612" y2="13.5009" gradientUnits="userSpaceOnUse">
<stop stop-color="#8903FF"/>
<stop offset="1" stop-color="#3547FF"/>
</linearGradient>
</defs>
</svg>
