<svg width="24" height="25" viewBox="0 0 24 25" fill="none" xmlns="http://www.w3.org/2000/svg">
<mask id="mask0_10053_100" style="mask-type:alpha" maskUnits="userSpaceOnUse" x="0" y="0" width="24" height="25">
<rect y="0.5" width="24" height="24" fill="#D9D9D9"/>
</mask>
<g mask="url(#mask0_10053_100)">
<path d="M3 17.4999H21C21.2833 17.4999 21.5208 17.5957 21.7125 17.7874C21.9042 17.9791 22 18.2166 22 18.4999C22 18.7832 21.9042 19.0207 21.7125 19.2124C21.5208 19.4041 21.2833 19.4999 21 19.4999H3C2.71667 19.4999 2.47917 19.4041 2.2875 19.2124C2.09583 19.0207 2 18.7832 2 18.4999C2 18.2166 2.09583 17.9791 2.2875 17.7874C2.47917 17.5957 2.71667 17.4999 3 17.4999ZM4 11.9499L3.525 12.7999C3.425 12.9832 3.275 13.0999 3.075 13.1499C2.875 13.1999 2.68333 13.1749 2.5 13.0749C2.31667 12.9749 2.2 12.8249 2.15 12.6249C2.1 12.4249 2.125 12.2332 2.225 12.0499L2.7 11.1999H1.75C1.53333 11.1999 1.35417 11.1291 1.2125 10.9874C1.07083 10.8457 1 10.6666 1 10.4499C1 10.2332 1.07083 10.0541 1.2125 9.9124C1.35417 9.77074 1.53333 9.6999 1.75 9.6999H2.7L2.225 8.8999C2.125 8.71657 2.1 8.5249 2.15 8.3249C2.2 8.1249 2.31667 7.9749 2.5 7.8749C2.68333 7.7749 2.875 7.7499 3.075 7.7999C3.275 7.8499 3.425 7.96657 3.525 8.1499L4 8.9499L4.475 8.1499C4.575 7.96657 4.725 7.8499 4.925 7.7999C5.125 7.7499 5.31667 7.7749 5.5 7.8749C5.68333 7.9749 5.8 8.1249 5.85 8.3249C5.9 8.5249 5.875 8.71657 5.775 8.8999L5.3 9.6999H6.25C6.46667 9.6999 6.64583 9.77074 6.7875 9.9124C6.92917 10.0541 7 10.2332 7 10.4499C7 10.6666 6.92917 10.8457 6.7875 10.9874C6.64583 11.1291 6.46667 11.1999 6.25 11.1999H5.3L5.775 12.0499C5.875 12.2332 5.9 12.4249 5.85 12.6249C5.8 12.8249 5.68333 12.9749 5.5 13.0749C5.31667 13.1749 5.125 13.1999 4.925 13.1499C4.725 13.0999 4.575 12.9832 4.475 12.7999L4 11.9499ZM12 11.9499L11.525 12.7999C11.425 12.9832 11.275 13.0999 11.075 13.1499C10.875 13.1999 10.6833 13.1749 10.5 13.0749C10.3167 12.9749 10.2 12.8249 10.15 12.6249C10.1 12.4249 10.125 12.2332 10.225 12.0499L10.7 11.1999H9.75C9.53333 11.1999 9.35417 11.1291 9.2125 10.9874C9.07083 10.8457 9 10.6666 9 10.4499C9 10.2332 9.07083 10.0541 9.2125 9.9124C9.35417 9.77074 9.53333 9.6999 9.75 9.6999H10.7L10.225 8.8999C10.125 8.71657 10.1 8.5249 10.15 8.3249C10.2 8.1249 10.3167 7.9749 10.5 7.8749C10.6833 7.7749 10.875 7.7499 11.075 7.7999C11.275 7.8499 11.425 7.96657 11.525 8.1499L12 8.9499L12.475 8.1499C12.575 7.96657 12.725 7.8499 12.925 7.7999C13.125 7.7499 13.3167 7.7749 13.5 7.8749C13.6833 7.9749 13.8 8.1249 13.85 8.3249C13.9 8.5249 13.875 8.71657 13.775 8.8999L13.3 9.6999H14.25C14.4667 9.6999 14.6458 9.77074 14.7875 9.9124C14.9292 10.0541 15 10.2332 15 10.4499C15 10.6666 14.9292 10.8457 14.7875 10.9874C14.6458 11.1291 14.4667 11.1999 14.25 11.1999H13.3L13.775 12.0499C13.875 12.2332 13.9 12.4249 13.85 12.6249C13.8 12.8249 13.6833 12.9749 13.5 13.0749C13.3167 13.1749 13.125 13.1999 12.925 13.1499C12.725 13.0999 12.575 12.9832 12.475 12.7999L12 11.9499ZM20 11.9499L19.525 12.7999C19.425 12.9832 19.275 13.0999 19.075 13.1499C18.875 13.1999 18.6833 13.1749 18.5 13.0749C18.3167 12.9749 18.2 12.8249 18.15 12.6249C18.1 12.4249 18.125 12.2332 18.225 12.0499L18.7 11.1999H17.75C17.5333 11.1999 17.3542 11.1291 17.2125 10.9874C17.0708 10.8457 17 10.6666 17 10.4499C17 10.2332 17.0708 10.0541 17.2125 9.9124C17.3542 9.77074 17.5333 9.6999 17.75 9.6999H18.7L18.225 8.8999C18.125 8.71657 18.1 8.5249 18.15 8.3249C18.2 8.1249 18.3167 7.9749 18.5 7.8749C18.6833 7.7749 18.875 7.7499 19.075 7.7999C19.275 7.8499 19.425 7.96657 19.525 8.1499L20 8.9499L20.475 8.1499C20.575 7.96657 20.725 7.8499 20.925 7.7999C21.125 7.7499 21.3167 7.7749 21.5 7.8749C21.6833 7.9749 21.8 8.1249 21.85 8.3249C21.9 8.5249 21.875 8.71657 21.775 8.8999L21.3 9.6999H22.25C22.4667 9.6999 22.6458 9.77074 22.7875 9.9124C22.9292 10.0541 23 10.2332 23 10.4499C23 10.6666 22.9292 10.8457 22.7875 10.9874C22.6458 11.1291 22.4667 11.1999 22.25 11.1999H21.3L21.775 12.0499C21.875 12.2332 21.9 12.4249 21.85 12.6249C21.8 12.8249 21.6833 12.9749 21.5 13.0749C21.3167 13.1749 21.125 13.1999 20.925 13.1499C20.725 13.0999 20.575 12.9832 20.475 12.7999L20 11.9499Z" fill="#2E3EDF"/>
</g>
</svg>
